<svg xmlns="http://www.w3.org/2000/svg" xmlns:xlink="http://www.w3.org/1999/xlink" width="500" zoomAndPan="magnify" viewBox="0 0 375 374.999991" height="500" preserveAspectRatio="xMidYMid meet" version="1.0"><defs><g/><clipPath id="1931db92b2"><path d="M 96 66.789062 L 209 66.789062 L 209 181 L 96 181 Z M 96 66.789062 " clip-rule="nonzero"/></clipPath></defs><rect x="-37.5" width="450" fill="#ffffff" y="-37.499999" height="449.999989" fill-opacity="1"/><rect x="-37.5" width="450" fill="#ffffff" y="-37.499999" height="449.999989" fill-opacity="1"/><g clip-path="url(#1931db92b2)"><path fill="#2b2b2b" d="M 108.136719 173 C 108.136719 173 106.097656 177.070312 105.234375 179.65625 C 105.902344 179.617188 106.578125 179.585938 107.261719 179.566406 C 108.351562 176.777344 109.535156 174.050781 110.796875 171.402344 C 106.5 171.25 103.917969 169.425781 102.710938 168.289062 C 100.492188 172.246094 98.433594 176.359375 96.570312 180.617188 C 98.363281 180.320312 100.332031 180.054688 102.421875 179.863281 C 103.824219 178.765625 105.777344 176.738281 108.136719 173 Z M 110.523438 155.855469 C 108.117188 159.300781 105.816406 162.898438 103.652344 166.640625 C 104.167969 167.273438 106.554688 169.800781 111.628906 169.703125 C 113.359375 166.207031 115.21875 162.839844 117.171875 159.617188 C 113.546875 158.910156 111.539062 157.136719 110.523438 155.855469 Z M 114.5625 160.433594 C 114.5625 160.433594 111.71875 164.707031 110.894531 166.730469 C 110.066406 168.757812 106.976562 167.886719 106.167969 166.855469 C 106.167969 166.855469 109.675781 167.671875 114.5625 160.433594 Z M 118.203125 145.777344 C 115.960938 148.480469 113.773438 151.308594 111.660156 154.253906 C 112.195312 155.167969 113.914062 157.414062 118.136719 158.050781 C 120.027344 155.019531 121.992188 152.121094 124 149.367188 C 120.777344 148.601562 119.039062 146.910156 118.203125 145.777344 Z M 121.730469 149.898438 C 121.730469 149.898438 118.585938 154.347656 117.730469 155.9375 C 116.875 157.523438 114.25 155.234375 114.25 155.234375 C 114.25 155.234375 116.851562 155.53125 121.730469 149.898438 Z M 126.058594 137.015625 C 123.828125 139.316406 121.621094 141.742188 119.457031 144.285156 C 119.796875 144.9375 121.21875 147.15625 125.121094 147.847656 C 127.042969 145.277344 128.992188 142.839844 130.945312 140.542969 C 128.210938 139.660156 126.773438 138.113281 126.058594 137.015625 Z M 128.902344 140.847656 C 128.902344 140.847656 125.660156 144.378906 124.785156 145.558594 C 123.914062 146.734375 122.203125 145.71875 121.828125 145.265625 C 121.828125 145.265625 124.257812 145.492188 128.902344 140.847656 Z M 134.023438 129.390625 C 131.816406 131.347656 129.613281 133.425781 127.425781 135.625 C 127.753906 136.355469 128.90625 138.265625 132.179688 139.109375 C 134.15625 136.839844 136.128906 134.71875 138.0625 132.757812 C 135.746094 131.828125 134.585938 130.414062 134.023438 129.390625 Z M 135.597656 133.425781 C 134.441406 134.347656 132.210938 136.992188 131.734375 137.519531 C 131.21875 138.089844 129.550781 137.0625 129.246094 136.640625 C 129.246094 136.640625 131.035156 136.710938 135.597656 133.425781 Z M 162.546875 111.648438 C 179.375 116.265625 180.382812 132.230469 167.042969 137.660156 C 167.042969 137.660156 171.863281 132.628906 171.359375 127.386719 C 171.359375 127.386719 169.453125 130.675781 162.082031 134.398438 C 162.082031 134.398438 168.679688 127.089844 167.902344 121.804688 C 167.902344 121.804688 167.320312 124.125 162.695312 126.382812 C 164.945312 123.914062 167.351562 118.3125 163.589844 112.945312 C 163.589844 112.945312 173.808594 117.722656 173.175781 128.59375 C 173.175781 128.59375 176.609375 117.746094 162.546875 111.648438 Z M 163.976562 110.863281 C 179.09375 104.570312 203.425781 111.953125 197.660156 134.765625 C 197.660156 134.765625 197.417969 123.359375 189.210938 118.285156 C 189.210938 118.285156 193.421875 123.152344 191.949219 131.351562 C 191.949219 131.351562 190.355469 120.503906 182.203125 115.511719 C 182.203125 115.511719 187.710938 120.851562 187.632812 128.328125 C 186.515625 124.386719 179.929688 113.4375 166.351562 111.707031 C 166.351562 111.707031 181.84375 108.003906 192.84375 118.164062 C 192.84375 118.164062 184.472656 106.488281 163.976562 110.863281 Z M 142.015625 122.828125 C 139.859375 124.457031 137.6875 126.210938 135.507812 128.089844 C 135.730469 128.734375 136.566406 130.480469 139.40625 131.40625 C 141.398438 129.441406 143.332031 127.648438 145.1875 126.042969 C 143.320312 125.066406 142.433594 123.792969 142.015625 122.828125 Z M 143.59375 125.992188 C 141.84375 127.523438 139.511719 129.765625 139.199219 130.027344 C 138.890625 130.285156 137.328125 129.414062 136.992188 128.796875 C 136.992188 128.796875 139.125 129.320312 143.59375 125.992188 Z M 158.097656 110.050781 C 158.097656 110.050781 118.128906 89.984375 106.371094 128.28125 C 106.371094 128.28125 113.671875 119.78125 121.992188 116.089844 C 121.992188 116.089844 116.574219 121.40625 115.554688 128.148438 C 115.554688 128.148438 123.214844 118.25 130.449219 115.046875 C 130.449219 115.046875 125.460938 120.417969 124.34375 126.773438 C 124.34375 126.773438 133.269531 116.160156 139.695312 114.160156 C 139.695312 114.160156 134.621094 119.027344 133.320312 123.816406 C 133.320312 123.816406 141.894531 112.976562 155.527344 111.332031 C 155.527344 111.332031 137.332031 104.433594 119.96875 113.871094 C 119.96875 113.871094 130.433594 102.367188 158.097656 110.050781 Z M 151.007812 116.683594 C 149.972656 117.3125 148.871094 118.011719 147.707031 118.785156 C 146.359375 119.679688 144.996094 120.628906 143.625 121.628906 C 143.753906 122.261719 144.308594 123.785156 146.636719 124.804688 C 148.09375 123.585938 149.484375 122.488281 150.796875 121.519531 C 151.761719 120.808594 152.667969 120.148438 153.515625 119.535156 C 152.054688 118.621094 151.351562 117.519531 151.007812 116.683594 Z M 151.636719 119.730469 C 151.636719 119.730469 148.125 122 147.226562 122.839844 C 146.328125 123.683594 145.519531 123.308594 145.109375 122.691406 C 145.109375 122.691406 146.929688 122.621094 151.636719 119.730469 Z M 161.71875 111.992188 C 161.15625 111.699219 157.96875 112.664062 152.691406 115.691406 C 152.820312 116.261719 153.300781 117.488281 155.078125 118.40625 C 159.785156 115.003906 162.210938 113.21875 161.71875 111.992188 Z M 159.675781 114.011719 C 159.675781 114.011719 155.742188 117.070312 155.246094 117.132812 C 154.753906 117.195312 154.191406 116.390625 154.191406 116.390625 C 154.191406 116.390625 156.242188 116.191406 159.675781 114.011719 Z M 164.078125 108.984375 C 176.21875 93.574219 203.011719 90.933594 208.816406 111.058594 C 208.816406 111.058594 203.445312 103.976562 193.132812 103.058594 C 193.132812 103.058594 199.859375 103.984375 204.25 112.550781 C 204.25 112.550781 196.296875 104.5 184.714844 104.109375 C 184.714844 104.109375 192.546875 105.195312 197.074219 112.230469 C 193.574219 109.125 180.46875 102.992188 166.40625 108.441406 C 166.40625 108.441406 179.410156 97.148438 196.535156 101.054688 C 196.535156 101.054688 181.003906 94.214844 164.078125 108.984375 Z M 131.207031 86.628906 C 145.785156 83.257812 159.121094 95.386719 159.566406 110.386719 C 163.914062 84.289062 124.328125 71.644531 112.585938 100.535156 C 112.585938 100.535156 121.914062 90.441406 133.457031 89.4375 C 133.457031 89.4375 125.976562 91.980469 122.941406 100.191406 C 122.941406 100.191406 132.28125 91.035156 144.375 93.074219 C 144.375 93.074219 136.351562 94.253906 132.273438 100.449219 C 132.273438 100.449219 141.859375 95.535156 151.65625 99.140625 C 151.65625 99.140625 146.929688 98.488281 141.820312 101.382812 C 141.820312 101.382812 152.316406 101.042969 158.570312 109.734375 C 154.796875 87.050781 136.398438 85.738281 131.207031 86.628906 Z M 151.617188 66.789062 C 151.707031 66.835938 164.871094 73.929688 166.632812 82.929688 C 166.632812 82.929688 163.410156 76.386719 152.566406 73.148438 C 152.566406 73.148438 165.039062 80.902344 164.789062 90.6875 C 164.789062 90.6875 162.980469 84.070312 153.511719 80.519531 C 153.511719 80.519531 162.851562 89.835938 162.566406 96.585938 C 162.566406 96.585938 160.078125 91.261719 154.300781 88.847656 C 154.300781 88.847656 163.648438 97.691406 160.945312 107.53125 C 160.945312 107.53125 174.828125 93.296875 168.292969 79.828125 C 168.292969 79.828125 177.359375 92.179688 161.914062 108.488281 C 168.851562 104.421875 188.148438 81.734375 156.96875 68.757812 L 155.90625 68.320312 C 154.566406 67.792969 153.136719 67.28125 151.617188 66.789062 Z M 151.617188 66.789062 " fill-opacity="1" fill-rule="evenodd"/></g><path fill="#005b96" d="M 118.769531 186.40625 C 137.484375 182.863281 187.355469 171.058594 253.960938 166.78125 C 236.222656 161.96875 168.148438 171.253906 149.929688 175.023438 C 149.929688 175.023438 196.609375 162.527344 248.027344 159.433594 C 246.644531 158.039062 243.546875 155.035156 242.054688 153.753906 C 241.117188 153.167969 224.238281 152.96875 202.886719 155.558594 C 204.144531 154.707031 230.855469 150.519531 237.9375 150.476562 C 232.652344 146.5625 226.796875 143.324219 220.511719 140.882812 C 207.289062 140.171875 187.636719 141.796875 187.636719 141.796875 C 195.414062 139.949219 203.457031 138.679688 211.800781 138.09375 C 205.105469 136.382812 198.03125 135.539062 190.714844 135.695312 C 170.882812 136.125 152.816406 143.816406 139.257812 156.078125 C 150.335938 153.683594 174.394531 150.964844 178.242188 151.390625 C 177.457031 151.410156 144.644531 157.226562 131.699219 163.945312 C 126.140625 170.613281 121.734375 178.199219 118.769531 186.40625 Z M 118.769531 186.40625 " fill-opacity="1" fill-rule="evenodd"/><path fill="#586c58" d="M 108.667969 184.257812 C 96.683594 182.726562 55.308594 206.496094 58.148438 211.53125 C 60.136719 215.050781 89.957031 207.292969 108.761719 203.160156 C 122.929688 200.046875 128.09375 202.171875 131.945312 204.078125 C 139.8125 207.964844 178.949219 195.019531 225.03125 189.765625 C 259.75 185.804688 264.570312 188.726562 223.222656 197.507812 C 182.988281 206.054688 136.519531 217.394531 132.722656 222.121094 C 128.894531 226.890625 172.734375 218.683594 236.605469 210.121094 C 261.285156 206.8125 267.273438 201.898438 254.921875 201.722656 C 238.820312 201.496094 229.566406 203.703125 254.914062 195.84375 C 275.582031 189.4375 301.5 183.390625 305.980469 179.988281 C 319.691406 169.585938 153.039062 182.300781 100.140625 197.792969 C 82.839844 202.863281 114.925781 185.054688 108.667969 184.257812 Z M 129.679688 212.125 C 134.039062 209.726562 127.640625 209.105469 119.308594 210.160156 C 110.980469 211.214844 100.71875 213.941406 97.347656 218.238281 C 90.609375 226.835938 120.171875 217.363281 129.679688 212.125 Z M 129.679688 212.125 " fill-opacity="1" fill-rule="evenodd"/><g fill="#262057" fill-opacity="1"><g transform="translate(89.741799, 284.786904)"><g><path d="M 9.890625 0.453125 L 7.453125 -5.65625 L 4.59375 0.46875 L 0.453125 -10.234375 L 2.828125 -10.234375 L 4.859375 -4.265625 L 6.421875 -8.203125 L 5.609375 -10.234375 L 7.625 -10.234375 L 9.9375 -4.515625 L 11.6875 -10.234375 L 13.875 -10.234375 Z M 9.890625 0.453125 "/></g></g></g><g fill="#262057" fill-opacity="1"><g transform="translate(108.451812, 284.786904)"><g><path d="M 8.359375 -10.296875 L 8.359375 -8.34375 L 3.359375 -8.34375 L 3.359375 -6.140625 L 7.78125 -6.140625 L 7.78125 -4.1875 L 3.359375 -4.1875 L 3.359375 -1.953125 L 8.546875 -1.953125 L 8.546875 0 L 1.328125 0 L 1.328125 -10.296875 Z M 8.359375 -10.296875 "/></g></g></g><g fill="#262057" fill-opacity="1"><g transform="translate(122.166616, 284.786904)"><g><path d="M 6.828125 -7.8125 C 5.929688 -8.300781 5.15625 -8.546875 4.5 -8.546875 C 4.050781 -8.546875 3.703125 -8.457031 3.453125 -8.28125 C 3.203125 -8.101562 3.078125 -7.835938 3.078125 -7.484375 C 3.078125 -7.160156 3.253906 -6.875 3.609375 -6.625 C 3.972656 -6.382812 4.453125 -6.148438 5.046875 -5.921875 C 5.535156 -5.742188 5.953125 -5.539062 6.296875 -5.3125 C 6.640625 -5.082031 6.925781 -4.765625 7.15625 -4.359375 C 7.382812 -3.960938 7.5 -3.457031 7.5 -2.84375 C 7.5 -2.3125 7.359375 -1.816406 7.078125 -1.359375 C 6.804688 -0.910156 6.40625 -0.550781 5.875 -0.28125 C 5.34375 -0.0195312 4.707031 0.109375 3.96875 0.109375 C 3.351562 0.109375 2.742188 0.0195312 2.140625 -0.15625 C 1.535156 -0.34375 0.972656 -0.625 0.453125 -1 L 1.34375 -2.578125 C 1.695312 -2.316406 2.101562 -2.101562 2.5625 -1.9375 C 3.019531 -1.769531 3.429688 -1.6875 3.796875 -1.6875 C 4.222656 -1.6875 4.59375 -1.773438 4.90625 -1.953125 C 5.226562 -2.128906 5.390625 -2.425781 5.390625 -2.84375 C 5.390625 -3.375 4.890625 -3.835938 3.890625 -4.234375 C 3.304688 -4.460938 2.816406 -4.679688 2.421875 -4.890625 C 2.023438 -5.109375 1.6875 -5.414062 1.40625 -5.8125 C 1.125 -6.21875 0.984375 -6.726562 0.984375 -7.34375 C 0.984375 -8.226562 1.273438 -8.941406 1.859375 -9.484375 C 2.441406 -10.023438 3.21875 -10.316406 4.1875 -10.359375 C 4.945312 -10.359375 5.582031 -10.269531 6.09375 -10.09375 C 6.613281 -9.925781 7.117188 -9.679688 7.609375 -9.359375 Z M 6.828125 -7.8125 "/></g></g></g><g fill="#262057" fill-opacity="1"><g transform="translate(134.720075, 284.786904)"><g><path d="M 7.578125 -10.296875 L 7.578125 -8.34375 L 5.0625 -8.34375 L 5.0625 0 L 3.03125 0 L 3.03125 -8.34375 L 0.625 -8.34375 L 0.625 -10.296875 Z M 7.578125 -10.296875 "/></g></g></g><g fill="#262057" fill-opacity="1"><g transform="translate(147.31551, 284.786904)"><g/></g></g><g fill="#262057" fill-opacity="1"><g transform="translate(156.258976, 284.786904)"><g><path d="M 9.0625 -0.859375 C 8.800781 -0.640625 8.382812 -0.421875 7.8125 -0.203125 C 7.238281 0.00390625 6.617188 0.109375 5.953125 0.109375 C 4.878906 0.109375 3.941406 -0.117188 3.140625 -0.578125 C 2.347656 -1.046875 1.742188 -1.675781 1.328125 -2.46875 C 0.910156 -3.257812 0.703125 -4.125 0.703125 -5.0625 C 0.703125 -6.101562 0.910156 -7.03125 1.328125 -7.84375 C 1.742188 -8.65625 2.332031 -9.285156 3.09375 -9.734375 C 3.851562 -10.191406 4.726562 -10.421875 5.71875 -10.421875 C 6.34375 -10.421875 6.921875 -10.332031 7.453125 -10.15625 C 7.984375 -9.988281 8.445312 -9.78125 8.84375 -9.53125 L 8.046875 -7.609375 C 7.304688 -8.171875 6.550781 -8.453125 5.78125 -8.453125 C 5.257812 -8.453125 4.769531 -8.304688 4.3125 -8.015625 C 3.851562 -7.734375 3.488281 -7.34375 3.21875 -6.84375 C 2.945312 -6.34375 2.8125 -5.789062 2.8125 -5.1875 C 2.8125 -4.519531 2.9375 -3.9375 3.1875 -3.4375 C 3.4375 -2.9375 3.796875 -2.546875 4.265625 -2.265625 C 4.734375 -1.984375 5.28125 -1.84375 5.90625 -1.84375 C 6.40625 -1.84375 6.859375 -1.925781 7.265625 -2.09375 C 7.671875 -2.257812 7.988281 -2.453125 8.21875 -2.671875 Z M 9.0625 -0.859375 "/></g></g></g><g fill="#262057" fill-opacity="1"><g transform="translate(170.407534, 284.786904)"><g><path d="M 8.359375 -10.296875 L 8.359375 -8.34375 L 3.359375 -8.34375 L 3.359375 -6.140625 L 7.78125 -6.140625 L 7.78125 -4.1875 L 3.359375 -4.1875 L 3.359375 -1.953125 L 8.546875 -1.953125 L 8.546875 0 L 1.328125 0 L 1.328125 -10.296875 Z M 8.359375 -10.296875 "/></g></g></g><g fill="#262057" fill-opacity="1"><g transform="translate(184.122339, 284.786904)"><g><path d="M 10.609375 -10.296875 L 10.609375 0.421875 L 10.5625 0.421875 L 3.34375 -6.09375 L 3.390625 0 L 1.328125 0 L 1.328125 -10.703125 L 1.40625 -10.703125 L 8.609375 -4.109375 L 8.5625 -10.296875 Z M 10.609375 -10.296875 "/></g></g></g><g fill="#262057" fill-opacity="1"><g transform="translate(200.453686, 284.786904)"><g><path d="M 7.578125 -10.296875 L 7.578125 -8.34375 L 5.0625 -8.34375 L 5.0625 0 L 3.03125 0 L 3.03125 -8.34375 L 0.625 -8.34375 L 0.625 -10.296875 Z M 7.578125 -10.296875 "/></g></g></g><g fill="#262057" fill-opacity="1"><g transform="translate(213.049121, 284.786904)"><g><path d="M 6.890625 0 L 4.71875 -3.28125 L 3.359375 -3.28125 L 3.359375 0 L 1.328125 0 L 1.328125 -10.296875 L 4.453125 -10.296875 C 5.734375 -10.296875 6.722656 -9.984375 7.421875 -9.359375 C 8.128906 -8.742188 8.484375 -7.898438 8.484375 -6.828125 C 8.484375 -6.191406 8.347656 -5.597656 8.078125 -5.046875 C 7.816406 -4.492188 7.410156 -4.054688 6.859375 -3.734375 L 9.25 0 Z M 3.359375 -5.234375 L 4.796875 -5.234375 C 5.347656 -5.234375 5.75 -5.394531 6 -5.71875 C 6.257812 -6.039062 6.390625 -6.390625 6.390625 -6.765625 C 6.390625 -7.140625 6.28125 -7.492188 6.0625 -7.828125 C 5.84375 -8.171875 5.425781 -8.34375 4.8125 -8.34375 L 3.359375 -8.34375 Z M 3.359375 -5.234375 "/></g></g></g><g fill="#262057" fill-opacity="1"><g transform="translate(227.043769, 284.786904)"><g><path d="M 6.421875 -2.015625 L 3.015625 -2.015625 L 2.171875 0 L 0.171875 0 L 4.8125 -10.703125 L 4.921875 -10.703125 L 9.578125 0 L 7.21875 0 Z M 5.75 -3.71875 L 4.765625 -6.234375 L 3.71875 -3.71875 Z M 5.75 -3.71875 "/></g></g></g><g fill="#262057" fill-opacity="1"><g transform="translate(241.178343, 284.786904)"><g><path d="M 3.359375 -10.296875 L 3.359375 -1.953125 L 8.203125 -1.953125 L 8.203125 0 L 1.328125 0 L 1.328125 -10.296875 Z M 3.359375 -10.296875 "/></g></g></g><g fill="#262057" fill-opacity="1"><g transform="translate(254.543347, 284.786904)"><g/></g></g><g fill="#262057" fill-opacity="1"><g transform="translate(263.486813, 284.786904)"><g><path d="M 7.765625 -10.296875 L 7.765625 -8.34375 L 3.359375 -8.34375 L 3.359375 -6 L 7.1875 -6 L 7.1875 -4.046875 L 3.359375 -4.046875 L 3.359375 0 L 1.328125 0 L 1.328125 -10.296875 Z M 7.765625 -10.296875 "/></g></g></g><g fill="#262057" fill-opacity="1"><g transform="translate(276.278136, 284.786904)"><g><path d="M 3.359375 -10.296875 L 3.359375 -1.953125 L 8.203125 -1.953125 L 8.203125 0 L 1.328125 0 L 1.328125 -10.296875 Z M 3.359375 -10.296875 "/></g></g></g><g fill="#262057" fill-opacity="1"><g transform="translate(22.395725, 257.686903)"><g><path d="M 14.34375 -17.8125 C 13.5625 -18.238281 12.726562 -18.582031 11.84375 -18.84375 C 10.96875 -19.101562 10.140625 -19.234375 9.359375 -19.234375 C 8.179688 -19.234375 7.242188 -18.96875 6.546875 -18.4375 C 5.859375 -17.90625 5.515625 -17.179688 5.515625 -16.265625 C 5.515625 -15.359375 5.921875 -14.617188 6.734375 -14.046875 C 7.546875 -13.484375 8.703125 -12.921875 10.203125 -12.359375 C 11.316406 -11.960938 12.257812 -11.523438 13.03125 -11.046875 C 13.800781 -10.578125 14.441406 -9.925781 14.953125 -9.09375 C 15.460938 -8.269531 15.71875 -7.21875 15.71875 -5.9375 C 15.71875 -4.78125 15.425781 -3.726562 14.84375 -2.78125 C 14.269531 -1.84375 13.445312 -1.101562 12.375 -0.5625 C 11.300781 -0.03125 10.046875 0.234375 8.609375 0.234375 C 7.265625 0.234375 5.972656 0.0195312 4.734375 -0.40625 C 3.492188 -0.832031 2.40625 -1.378906 1.46875 -2.046875 L 2.765625 -4.34375 C 3.503906 -3.789062 4.390625 -3.316406 5.421875 -2.921875 C 6.460938 -2.535156 7.4375 -2.34375 8.34375 -2.34375 C 9.5 -2.34375 10.507812 -2.640625 11.375 -3.234375 C 12.25 -3.835938 12.6875 -4.726562 12.6875 -5.90625 C 12.6875 -6.90625 12.320312 -7.703125 11.59375 -8.296875 C 10.863281 -8.890625 9.835938 -9.441406 8.515625 -9.953125 C 7.296875 -10.421875 6.28125 -10.875 5.46875 -11.3125 C 4.664062 -11.75 3.972656 -12.351562 3.390625 -13.125 C 2.804688 -13.894531 2.515625 -14.859375 2.515625 -16.015625 C 2.515625 -17.710938 3.109375 -19.085938 4.296875 -20.140625 C 5.492188 -21.191406 7.039062 -21.75 8.9375 -21.8125 C 11.28125 -21.8125 13.453125 -21.226562 15.453125 -20.0625 Z M 14.34375 -17.8125 "/></g></g></g><g fill="#262057" fill-opacity="1"><g transform="translate(44.715707, 257.686903)"><g><path d="M 5.765625 -7.6875 C 5.765625 -6.71875 5.992188 -5.847656 6.453125 -5.078125 C 6.910156 -4.316406 7.535156 -3.707031 8.328125 -3.25 C 9.117188 -2.800781 9.992188 -2.578125 10.953125 -2.578125 C 11.953125 -2.578125 12.851562 -2.796875 13.65625 -3.234375 C 14.46875 -3.679688 15.101562 -4.289062 15.5625 -5.0625 C 16.03125 -5.84375 16.265625 -6.71875 16.265625 -7.6875 L 16.265625 -21.6875 L 19.109375 -21.6875 L 19.109375 -7.59375 C 19.109375 -6.050781 18.75 -4.679688 18.03125 -3.484375 C 17.3125 -2.296875 16.332031 -1.378906 15.09375 -0.734375 C 13.851562 -0.0859375 12.472656 0.234375 10.953125 0.234375 C 9.453125 0.234375 8.082031 -0.0859375 6.84375 -0.734375 C 5.601562 -1.378906 4.625 -2.296875 3.90625 -3.484375 C 3.195312 -4.679688 2.84375 -6.050781 2.84375 -7.59375 L 2.84375 -21.6875 L 5.765625 -21.6875 Z M 5.765625 -7.6875 "/></g></g></g><g fill="#262057" fill-opacity="1"><g transform="translate(71.535679, 257.686903)"><g><path d="M 15.0625 0 L 9.953125 -8.015625 C 9.796875 -7.992188 9.554688 -7.984375 9.234375 -7.984375 L 6.03125 -7.984375 L 6.03125 0 L 3.125 0 L 3.125 -21.6875 L 8.90625 -21.6875 C 10.382812 -21.6875 11.703125 -21.425781 12.859375 -20.90625 C 14.023438 -20.382812 14.9375 -19.617188 15.59375 -18.609375 C 16.257812 -17.597656 16.59375 -16.382812 16.59375 -14.96875 C 16.59375 -13.625 16.296875 -12.390625 15.703125 -11.265625 C 15.109375 -10.148438 14.203125 -9.304688 12.984375 -8.734375 L 18.453125 0 Z M 9.1875 -10.796875 C 10.738281 -10.796875 11.859375 -11.207031 12.546875 -12.03125 C 13.242188 -12.851562 13.59375 -13.789062 13.59375 -14.84375 C 13.59375 -15.488281 13.445312 -16.117188 13.15625 -16.734375 C 12.863281 -17.359375 12.398438 -17.875 11.765625 -18.28125 C 11.140625 -18.695312 10.347656 -18.90625 9.390625 -18.90625 L 6.03125 -18.90625 L 6.03125 -10.796875 Z M 9.1875 -10.796875 "/></g></g></g><g fill="#262057" fill-opacity="1"><g transform="translate(96.195657, 257.686903)"><g><path d="M 15.984375 -21.6875 L 15.984375 -18.90625 L 6.03125 -18.90625 L 6.03125 -12 L 14.765625 -12 L 14.765625 -9.203125 L 6.03125 -9.203125 L 6.03125 0 L 3.125 0 L 3.125 -21.6875 Z M 15.984375 -21.6875 "/></g></g></g><g fill="#262057" fill-opacity="1"><g transform="translate(118.725639, 257.686903)"><g/></g></g><g fill="#262057" fill-opacity="1"><g transform="translate(133.065624, 257.686903)"><g><path d="M 16.796875 0 L 15 -2.40625 C 14.363281 -1.582031 13.519531 -0.925781 12.46875 -0.4375 C 11.414062 0.0507812 10.21875 0.296875 8.875 0.296875 C 7.519531 0.296875 6.296875 0.0195312 5.203125 -0.53125 C 4.109375 -1.09375 3.25 -1.859375 2.625 -2.828125 C 2.007812 -3.804688 1.703125 -4.90625 1.703125 -6.125 C 1.703125 -7.144531 1.957031 -8.085938 2.46875 -8.953125 C 2.976562 -9.828125 3.664062 -10.570312 4.53125 -11.1875 C 5.40625 -11.8125 6.351562 -12.253906 7.375 -12.515625 L 6.421875 -13.765625 C 5.398438 -15.265625 4.890625 -16.609375 4.890625 -17.796875 C 4.890625 -18.648438 5.101562 -19.457031 5.53125 -20.21875 C 5.96875 -20.976562 6.585938 -21.585938 7.390625 -22.046875 C 8.203125 -22.503906 9.148438 -22.734375 10.234375 -22.734375 C 11.328125 -22.734375 12.347656 -22.515625 13.296875 -22.078125 C 14.253906 -21.640625 15.050781 -21.082031 15.6875 -20.40625 L 14.25 -18.453125 C 12.882812 -19.671875 11.695312 -20.28125 10.6875 -20.28125 C 9.84375 -20.28125 9.164062 -20.019531 8.65625 -19.5 C 8.144531 -18.976562 7.890625 -18.335938 7.890625 -17.578125 C 7.890625 -16.859375 8.21875 -16 8.875 -15 L 14.640625 -7.34375 L 16.703125 -12.75 L 19.40625 -12.75 L 16.375 -5.046875 L 20.1875 0 Z M 9.234375 -2.3125 C 10.210938 -2.3125 11.054688 -2.503906 11.765625 -2.890625 C 12.484375 -3.285156 13.039062 -3.800781 13.4375 -4.4375 L 8.9375 -10.4375 C 8.21875 -10.394531 7.53125 -10.179688 6.875 -9.796875 C 6.226562 -9.421875 5.707031 -8.914062 5.3125 -8.28125 C 4.925781 -7.65625 4.734375 -6.972656 4.734375 -6.234375 C 4.734375 -5.097656 5.164062 -4.160156 6.03125 -3.421875 C 6.90625 -2.679688 7.972656 -2.3125 9.234375 -2.3125 Z M 9.234375 -2.3125 "/></g></g></g><g fill="#262057" fill-opacity="1"><g transform="translate(159.705602, 257.686903)"><g/></g></g><g fill="#262057" fill-opacity="1"><g transform="translate(174.045586, 257.686903)"><g><path d="M 15.9375 -21.6875 L 15.9375 -18.90625 L 10.109375 -18.90625 L 10.109375 0 L 7.203125 0 L 7.203125 -18.90625 L 1.53125 -18.90625 L 1.53125 -21.6875 Z M 15.9375 -21.6875 "/></g></g></g><g fill="#262057" fill-opacity="1"><g transform="translate(196.365569, 257.686903)"><g><path d="M 5.765625 -7.6875 C 5.765625 -6.71875 5.992188 -5.847656 6.453125 -5.078125 C 6.910156 -4.316406 7.535156 -3.707031 8.328125 -3.25 C 9.117188 -2.800781 9.992188 -2.578125 10.953125 -2.578125 C 11.953125 -2.578125 12.851562 -2.796875 13.65625 -3.234375 C 14.46875 -3.679688 15.101562 -4.289062 15.5625 -5.0625 C 16.03125 -5.84375 16.265625 -6.71875 16.265625 -7.6875 L 16.265625 -21.6875 L 19.109375 -21.6875 L 19.109375 -7.59375 C 19.109375 -6.050781 18.75 -4.679688 18.03125 -3.484375 C 17.3125 -2.296875 16.332031 -1.378906 15.09375 -0.734375 C 13.851562 -0.0859375 12.472656 0.234375 10.953125 0.234375 C 9.453125 0.234375 8.082031 -0.0859375 6.84375 -0.734375 C 5.601562 -1.378906 4.625 -2.296875 3.90625 -3.484375 C 3.195312 -4.679688 2.84375 -6.050781 2.84375 -7.59375 L 2.84375 -21.6875 L 5.765625 -21.6875 Z M 5.765625 -7.6875 "/></g></g></g><g fill="#262057" fill-opacity="1"><g transform="translate(223.185552, 257.686903)"><g><path d="M 15.0625 0 L 9.953125 -8.015625 C 9.796875 -7.992188 9.554688 -7.984375 9.234375 -7.984375 L 6.03125 -7.984375 L 6.03125 0 L 3.125 0 L 3.125 -21.6875 L 8.90625 -21.6875 C 10.382812 -21.6875 11.703125 -21.425781 12.859375 -20.90625 C 14.023438 -20.382812 14.9375 -19.617188 15.59375 -18.609375 C 16.257812 -17.597656 16.59375 -16.382812 16.59375 -14.96875 C 16.59375 -13.625 16.296875 -12.390625 15.703125 -11.265625 C 15.109375 -10.148438 14.203125 -9.304688 12.984375 -8.734375 L 18.453125 0 Z M 9.1875 -10.796875 C 10.738281 -10.796875 11.859375 -11.207031 12.546875 -12.03125 C 13.242188 -12.851562 13.59375 -13.789062 13.59375 -14.84375 C 13.59375 -15.488281 13.445312 -16.117188 13.15625 -16.734375 C 12.863281 -17.359375 12.398438 -17.875 11.765625 -18.28125 C 11.140625 -18.695312 10.347656 -18.90625 9.390625 -18.90625 L 6.03125 -18.90625 L 6.03125 -10.796875 Z M 9.1875 -10.796875 "/></g></g></g><g fill="#262057" fill-opacity="1"><g transform="translate(247.845508, 257.686903)"><g><path d="M 15.984375 -21.6875 L 15.984375 -18.90625 L 6.03125 -18.90625 L 6.03125 -12 L 14.765625 -12 L 14.765625 -9.203125 L 6.03125 -9.203125 L 6.03125 0 L 3.125 0 L 3.125 -21.6875 Z M 15.984375 -21.6875 "/></g></g></g><g fill="#262057" fill-opacity="1"><g transform="translate(270.37549, 257.686903)"><g/></g></g><g fill="#262057" fill-opacity="1"><g transform="translate(284.715485, 257.686903)"><g><path d="M 6.03125 -21.6875 L 6.03125 -2.8125 L 17.0625 -2.8125 L 17.0625 0 L 3.125 0 L 3.125 -21.6875 Z M 6.03125 -21.6875 "/></g></g></g><g fill="#262057" fill-opacity="1"><g transform="translate(308.235473, 257.686903)"><g><path d="M 6.03125 -21.6875 L 6.03125 -2.8125 L 17.0625 -2.8125 L 17.0625 0 L 3.125 0 L 3.125 -21.6875 Z M 6.03125 -21.6875 "/></g></g></g><g fill="#262057" fill-opacity="1"><g transform="translate(331.755437, 257.686903)"><g><path d="M 19.046875 -1.625 C 18.347656 -1.164062 17.460938 -0.738281 16.390625 -0.34375 C 15.328125 0.0390625 14.164062 0.234375 12.90625 0.234375 C 10.675781 0.234375 8.71875 -0.253906 7.03125 -1.234375 C 5.34375 -2.210938 4.039062 -3.53125 3.125 -5.1875 C 2.21875 -6.851562 1.765625 -8.6875 1.765625 -10.6875 C 1.765625 -12.820312 2.222656 -14.742188 3.140625 -16.453125 C 4.066406 -18.160156 5.34375 -19.5 6.96875 -20.46875 C 8.601562 -21.445312 10.453125 -21.9375 12.515625 -21.9375 C 13.734375 -21.9375 14.867188 -21.773438 15.921875 -21.453125 C 16.984375 -21.128906 17.9375 -20.707031 18.78125 -20.1875 L 17.609375 -17.453125 C 15.953125 -18.578125 14.28125 -19.140625 12.59375 -19.140625 C 11.195312 -19.140625 9.90625 -18.769531 8.71875 -18.03125 C 7.53125 -17.289062 6.578125 -16.285156 5.859375 -15.015625 C 5.148438 -13.742188 4.796875 -12.347656 4.796875 -10.828125 C 4.796875 -9.265625 5.117188 -7.851562 5.765625 -6.59375 C 6.421875 -5.332031 7.351562 -4.347656 8.5625 -3.640625 C 9.769531 -2.929688 11.164062 -2.578125 12.75 -2.578125 C 14.6875 -2.578125 16.375 -3.128906 17.8125 -4.234375 Z M 19.046875 -1.625 "/></g></g></g></svg>